<?xml version="1.0" encoding="utf-8"?>
<!-- Generator: Adobe Illustrator 16.0.0, SVG Export Plug-In . SVG Version: 6.00 Build 0)  -->
<!DOCTYPE svg PUBLIC "-//W3C//DTD SVG 1.1//EN" "http://www.w3.org/Graphics/SVG/1.1/DTD/svg11.dtd">
<svg version="1.1" id="Layer_2" xmlns="http://www.w3.org/2000/svg" xmlns:xlink="http://www.w3.org/1999/xlink" x="0px" y="0px"
	 width="500px" height="87px" viewBox="0 0 500 87" enable-background="new 0 0 500 87" xml:space="preserve">
<metadata><?xpacket begin="﻿" id="W5M0MpCehiHzreSzNTczkc9d"?>
<x:xmpmeta xmlns:x="adobe:ns:meta/" x:xmptk="Adobe XMP Core 5.3-c011 66.145661, 2012/02/06-14:56:27        ">
   <rdf:RDF xmlns:rdf="http://www.w3.org/1999/02/22-rdf-syntax-ns#">
      <rdf:Description rdf:about=""
            xmlns:xmpMM="http://ns.adobe.com/xap/1.0/mm/"
            xmlns:stRef="http://ns.adobe.com/xap/1.0/sType/ResourceRef#"
            xmlns:stEvt="http://ns.adobe.com/xap/1.0/sType/ResourceEvent#">
         <xmpMM:DocumentID>xmp.did:0180117407206811822AC111375E49AD</xmpMM:DocumentID>
         <xmpMM:InstanceID>xmp.iid:0180117407206811822AC111375E49AD</xmpMM:InstanceID>
         <xmpMM:OriginalDocumentID>xmp.did:0180117407206811822ACDC68D8F9FBF</xmpMM:OriginalDocumentID>
         <xmpMM:RenditionClass>proof:pdf</xmpMM:RenditionClass>
         <xmpMM:DerivedFrom rdf:parseType="Resource">
            <stRef:instanceID>uuid:e2de8527-141a-5b40-8f2a-ee58b2a1ad26</stRef:instanceID>
            <stRef:documentID>xmp.did:0380117407206811822ACDC68D8F9FBF</stRef:documentID>
            <stRef:originalDocumentID>xmp.did:0180117407206811822ACDC68D8F9FBF</stRef:originalDocumentID>
            <stRef:renditionClass>proof:pdf</stRef:renditionClass>
         </xmpMM:DerivedFrom>
         <xmpMM:History>
            <rdf:Seq>
               <rdf:li rdf:parseType="Resource">
                  <stEvt:action>saved</stEvt:action>
                  <stEvt:instanceID>xmp.iid:0180117407206811822ACDC68D8F9FBF</stEvt:instanceID>
                  <stEvt:when>2017-03-27T18:59:41-04:00</stEvt:when>
                  <stEvt:softwareAgent>Adobe Illustrator CS6 (Macintosh)</stEvt:softwareAgent>
                  <stEvt:changed>/</stEvt:changed>
               </rdf:li>
               <rdf:li rdf:parseType="Resource">
                  <stEvt:action>saved</stEvt:action>
                  <stEvt:instanceID>xmp.iid:0180117407206811822AC111375E49AD</stEvt:instanceID>
                  <stEvt:when>2017-03-29T10:31:27-04:00</stEvt:when>
                  <stEvt:softwareAgent>Adobe Illustrator CS6 (Macintosh)</stEvt:softwareAgent>
                  <stEvt:changed>/</stEvt:changed>
               </rdf:li>
            </rdf:Seq>
         </xmpMM:History>
      </rdf:Description>
      <rdf:Description rdf:about=""
            xmlns:dc="http://purl.org/dc/elements/1.1/">
         <dc:format>image/svg+xml</dc:format>
         <dc:title>
            <rdf:Alt>
               <rdf:li xml:lang="x-default">w2wlogo</rdf:li>
            </rdf:Alt>
         </dc:title>
      </rdf:Description>
      <rdf:Description rdf:about=""
            xmlns:xmp="http://ns.adobe.com/xap/1.0/"
            xmlns:xmpGImg="http://ns.adobe.com/xap/1.0/g/img/">
         <xmp:CreatorTool>Adobe Illustrator CS6 (Macintosh)</xmp:CreatorTool>
         <xmp:CreateDate>2017-03-29T10:31:27-04:00</xmp:CreateDate>
         <xmp:MetadataDate>2017-03-29T10:31:27-04:00</xmp:MetadataDate>
         <xmp:ModifyDate>2017-03-29T10:31:27-04:00</xmp:ModifyDate>
         <xmp:Thumbnails>
            <rdf:Alt>
               <rdf:li rdf:parseType="Resource">
                  <xmpGImg:width>256</xmpGImg:width>
                  <xmpGImg:height>40</xmpGImg:height>
                  <xmpGImg:format>JPEG</xmpGImg:format>
                  <xmpGImg:image>/9j/4AAQSkZJRgABAgEASABIAAD/7QAsUGhvdG9zaG9wIDMuMAA4QklNA+0AAAAAABAASAAAAAEA&#xA;AQBIAAAAAQAB/+4ADkFkb2JlAGTAAAAAAf/bAIQABgQEBAUEBgUFBgkGBQYJCwgGBggLDAoKCwoK&#xA;DBAMDAwMDAwQDA4PEA8ODBMTFBQTExwbGxscHx8fHx8fHx8fHwEHBwcNDA0YEBAYGhURFRofHx8f&#xA;Hx8fHx8fHx8fHx8fHx8fHx8fHx8fHx8fHx8fHx8fHx8fHx8fHx8fHx8fHx8f/8AAEQgAKAEAAwER&#xA;AAIRAQMRAf/EAaIAAAAHAQEBAQEAAAAAAAAAAAQFAwIGAQAHCAkKCwEAAgIDAQEBAQEAAAAAAAAA&#xA;AQACAwQFBgcICQoLEAACAQMDAgQCBgcDBAIGAnMBAgMRBAAFIRIxQVEGE2EicYEUMpGhBxWxQiPB&#xA;UtHhMxZi8CRygvElQzRTkqKyY3PCNUQnk6OzNhdUZHTD0uIIJoMJChgZhJRFRqS0VtNVKBry4/PE&#xA;1OT0ZXWFlaW1xdXl9WZ2hpamtsbW5vY3R1dnd4eXp7fH1+f3OEhYaHiImKi4yNjo+Ck5SVlpeYmZ&#xA;qbnJ2en5KjpKWmp6ipqqusra6voRAAICAQIDBQUEBQYECAMDbQEAAhEDBCESMUEFURNhIgZxgZEy&#xA;obHwFMHR4SNCFVJicvEzJDRDghaSUyWiY7LCB3PSNeJEgxdUkwgJChgZJjZFGidkdFU38qOzwygp&#xA;0+PzhJSktMTU5PRldYWVpbXF1eX1RlZmdoaWprbG1ub2R1dnd4eXp7fH1+f3OEhYaHiImKi4yNjo&#xA;+DlJWWl5iZmpucnZ6fkqOkpaanqKmqq6ytrq+v/aAAwDAQACEQMRAD8AgXmP89vzu8m+f7/SL7zB&#xA;LeR6NfvFJbzQ23GeGOT4eXGIECWOhqN98Vfb9hfW1/Y219av6ltdxJPA46NHIoZT9IOKvlH/AJyQ&#xA;/P8A89aJ+Ys3l3ynq506y0qGJLv0o4naS5kX1Wq8iOaKjqtB3rir3j8jfP0/nr8tdL1y8kWTVAHt&#xA;dUKhV/0iBuJYqoCr6icZKAUHLFWCf85V/m35j8j6Voun+Wb36jquqSyyz3CpHI628AUcQJFcDm8g&#xA;3pX4TirFPJnm/wDMnW/+cdPPPmvzBrlxcXDq0OjyrwgkiW34+pIjQrGfjeTj1/ZxVC/84beZfMer&#xA;+ZvMUerareahHFZRNEl1cSzqrGWhKiRmocVfVuKuxV2KuxV49+aH/ORVn5H8+6b5Pi0VtUub1YGu&#xA;bn6yLdYfrMvpoAvpTFzQcj9nt9Cr2HFXYq+W/wA0vzO1jzFrd1ZWl08GhW0jRW9vExQShTQyyU+3&#xA;ypUA7Adq1zFnMkvsns97P4tLhjOUQc0hZJ6eQ7q+1hVvcatpNzDdW7z2NwVWWCZC8TFTurKRSoPj&#xA;le4ehnDFmiYyEZx5EbF9Mfk3+YFz5t0KaLUSG1bTWVLmUAASpJUxyUGwPwkNTwr3zKxzsPkXtT2L&#xA;HRZgcf8AdZOXkRzH6mA/85XebvzG8nWeha35W1iXTtPuJJbK/jSOJ19bj6sDVkRzVlWT/gcseXTD&#xA;/nFj81df88+WtWtvMd59e1jSLlP9IKJGzW1wpMfIIFUlXjkFadKYqyr8/vzCu/In5aX+r6dKsOr3&#xA;Dx2WlyMqsFnmJJfiwKkpEjuAQRUb7Yq8X/5xn/Przt5g8/ny35t1U6jb6lbSHTzJHEjJcwD1KBo1&#xA;TZoleoPcCmKvqDXNWtdG0W/1e7NLXTreW6nPT93Chkbr7Lir44/Kz85/zp88fmlo+jyeYZUsr289&#xA;a9t4YLdUS1irNMin06qPTQqCTX5nFX2pirsVeffnT+b1l+WPly11WawbVLm9uRbW1ksogr8DO7tI&#xA;UloFC0+ydyMVZD5A81/4u8m6T5k+q/Uv0pAJ/qnqer6dSRx9TjHy6deIxVkGKuxV4F/zmLres6R5&#xA;G0WbSr+50+aTUwkktrNJCzL9XlPEtGVJFR0xVM/+cSdX1XVfysmutUvZ7+5Gp3CCe5leZ+IjiIXk&#xA;5Y0FemKvasVfFf8AzmX5S/Rn5iWXmCJONvr9oPVfxubOkT/8kTDir3b/AJx389Wl3+RFjqd/LRPL&#xA;cFxaag/8kdgC69fC2KYq+RNH8u67+Z3mHzfrSE/Wba0vvMF1XfkVfmIVPiedFHgMVez/APOEvm4x&#xA;32v+UZn+CdE1SzQmnxxkQz08SytH/wADirAf+crvM7a7+cN7aRN6lvosEOnQhehcD1pdvH1ZmU/L&#xA;FX0P5s8pjyl/zixfeXyoWay0YC6AFB9YkZZZz9Mrtir5Z/Jv8zfNHke+1RPK2ljVNc1mGO2tUKST&#xA;FODl2ZYIvikanQV2679MVZ5H/wA5Qfnp5U8xQw+cbIOigPcaRe2YsJXiaoDI4RHXoeLUYexxV7t+&#xA;Zv5+w+WPy20bzlomlSapFr6r9SkkPC3t3ePmBclfi5bMAq9Sp+IYq8DuPz6/5yf1CxfzFZW9zbaD&#xA;GDK9xa6Sr2QjG5PrTRTHiO59T6cVei/lv/zk35u81eUdcsYdKhvPzA0q0+t6ZBFHI0N9GkiJJ+5R&#xA;1f1UV+XFG+LtSlMVfN3nTzT511z8xZtc161a380/WLfnYehJE0csCokUYt3q4+wvw9Sfnir6o/I7&#xA;8wvz51/zo9j560S50/RBZyyrPNpk1kvrq6BF9WRVFSGbbFXvN1C01tNCjmJpEZFkG5UsKBh8sWeO&#xA;QjIEi6Lwsf8AOM13zFfMEfCu5+rNWny9TMfwfN9H/wBH0K/uT/pv+OpV/wA5DX2nHzBpekWYXlpd&#xA;oEm40+D1CCkZ/wBVFDf7LBmO9OZ7EYcngZMs/wDKT2+HM/Pb4Jt/zjPZzm51293FuEgh9mcl2/4U&#xA;D8clhHNwvb7LHhxQ/iuR+G34+DM/+cgvKf8Aif8AKPzBZInK6tIP0habVb1LM+sQo8XjVk/2WXvm&#xA;z5f/AOcQfNB0n8110uR6W+vWk1rxP2fWiH1iNvnSNlH+tirKP+c1/NzXPmHQ/KcD1jsIGv7tVNaz&#xA;XBMcasPFI4yR7PiryjV9D1v8ofzM0WS45/XNOXT9U6cS3qRpJPF2qok9SL3pir6s/wCcoPOdtYfk&#xA;ncSWUwb/ABI1vaWcqn7UM3792H+S0MZX/ZYq+e/yC1ZvIuh+aPzQk0mXVBpiQ6TZRoQsazXjc3ll&#xA;c1KIgjjUkAn4wO9Qqmzfn9/zk35mim1fy9Zzw6VDyZ20zShc26BPtAyzR3J27/Fir0f/AJx7/wCc&#xA;mNV84a/H5S82xQjU7lHbTdSgX0hM8al2iljHwhigYqy0G1KVxV4v/wA5FeePzK8weYIdO846V+iL&#xA;XTJ7r9ERC2mt1mid1QyhpWf1dol+JTTc4qy38o/zI/5yEtrbyvounaDdS+UBNbW63q6VPJH9UaYC&#xA;R/rAXjQKW+Ku2Ks9/PX/AJyll8p61P5X8nwQ3Wq2h4alqNwC8MElN4o41K83X9ok0U7UJrRV54fz&#xA;5/5yh0mxi17U9NmbRdn9e70kxWzIaEFpESIhWrseQr2xVPP+cjPON95x/Iryf5ivtLk0ie/1Ln9V&#xA;kYMCot5QJYzs3CQfEvIA08RuVWBflX+bv5q6N5Rbyh+X2iveXQupb26vYbWS+mUSqiqqxqGRF/dG&#xA;rMDX2puqzT8s/wDnLDzvbebodF8/xx3Flc3C2k83ora3FnIX4FnRQoKq321ZeQ8dqFV6j/zlv5S/&#xA;Tf5UTalFHyu9AuI71SPtei59GZR7UkDn/VxV8seUPzMn0H8q/OXlJXPPX5LQWgH7Aq31tv8AZxRo&#xA;mKvon/nDPyaln5D1TzDdQqX1+5MEPIVDWtoCnfs0ryAj2xV4VpN0fyf/AOcg2E/OPT9H1KSCelWY&#xA;6dcghW4/tH6vKr08cVUfyh0q6/MT89NPuL9fUF1qEus6nXdeETtcsrf5LuBH/ssVfYv5/f8AkmvN&#xA;n/MC3/ElxV8+/wDOEUUTebvMcjIpkSwiCOQOQDTbgHtWmKpn/wA5y28K3Hky4CATyJqMbydykZti&#xA;o+gyN9+Kst/Kz8wfJnk//nGjy1qHm91mtJTeRQWJRZ5bhk1CeiRxOQG4AA1NAvj0xVj11/zmHcau&#xA;02neXvIU+pWbIYpI2nZnaNxw4mKCGTiD0+0cVeW/84nEj87dIANAYLwH3H1ZziqE/NL/ANaO1P8A&#xA;7bkH/E48Vff+KuxVjX5g+drLyh5el1Gaj3b1jsLY9ZJiNv8AYr1Y+HuRkZyoO37F7Jnrs4xjaI3k&#xA;e4frPR8pxRa55o8wcUD3ur6nMSfFnc1JPZVH3Ae2Ym5L7TKWHR4LPoxY4/YPx7yX1f5B8nWvlLy3&#xA;b6VCRJPvLeXAFPUnenJvkKBV9hmXCNB8U7Z7UlrdQcp2HKI7o/jc+bIWVWUqwDKwoyncEHsck6p+&#xA;dOu2lx+WP50TJErD/DmrpcWynYvbJKJoq/8AGSBlr88VZXoAP5sf85Mi7etxptzqbXZNNv0fYbxK&#xA;3gHihRD7tir0v/nNvyl6lh5f82wp8UDvpl4wFfgkBmgr4BWWT/gsVeGee/zMuPMvkDyP5bdjy8uW&#xA;1xFc9aMTII7f/gLeNR9JxV9TflMfKv5X/wDOPmm6j5rljt7XUkOoXkbpzaeS+HKGJYty7mAIvH2J&#xA;NADirD7n/nMy2a5GneUPJU95bxikCyTCJ/TXwt7eKcKB7Ptirw/8sb6a5/PvQr025sJLnXlkezFR&#xA;6Pq3BLQ7hT8PLj0xV6f/AM5vf8pV5a/5gZv+T2KvoD8gf/JNeU/+YFf+JNir4x/J+2i80fnloh11&#xA;PX+v6nJeXiS0IeZedxRwevKRdweuKv0MZVZSrAMrCjKdwQexxV87f85sgDyBoQGwGqig/wCjaXFU&#xA;z/5w0iiX8p7mRUUSPqtxzcAAtxihpU96Yq+dv+coERPz08zqihQTZMQBQVawt2Y7eJNTir7y17R7&#xA;TWtE1DR7wVtNRtpbScdTwmQo1K+zYq/MnU9E1DTtdutDmjJ1C0upLKSEA1M0chjKgdftDFX6S+Qf&#xA;K8PlXyXovl2ICmm2kUMrLsGlC1lf/ZyFm+nFXyx/zmn5R+pecNI8zwx0h1e2NtcsO9xaEUZvdopF&#xA;A/1cVT3/AJwk8pH/AJ2HzdNH14aVZSfdPcj/AJM4q9q/P7/yTXmz/mBb/iS4q+f/APnCH/lKvMv/&#xA;ADAw/wDJ7FU1/wCc5/8Apif+3p/2J4q8h87eXtcf8nvy619IpJdEjttRs5JFFY4bj9K3L/HT7PqK&#xA;wAr144q9F8hf85OXekeRtL8l+UfJvreZo4VtLd4W9SKacAA3BgiQSSO+7MvLr+1irF/+cY9Mv9K/&#xA;P+x0zUIWtr+yW/gurd/tJJHbyK6mm2xGKoX/AJyP0PXPK/516jrEkDJBfXEWpaXcuKxS8VQsAdhV&#xA;JFKsvX7wcVfQf5F/85GX/wCZHmW/0a+0QaeIrdbi1ntjJMgKnjIk7lQF5Vqh2GxG5pir2rUL+006&#xA;wuL+8kEVraxtLPIeiogqTtgJptwYZZZiEBcpGg+S/wAwPOuoec/MbXjK4tlPo6bZjcpHXbYdXc7t&#xA;77dAMxJy4i+3di9k49Bp+D+LnKXef1DozFFi/Kvy0srqrefNbhrEGAb6jbMaV3/bJH/BDwXef0Dz&#xA;dCSe2dRQ/wASxHf/AGyX6v0eZ2g9p+YXnW31KDUDrV7NNA4cLNcSujAGpRlZiOJ6UyHGXosvYmjl&#xA;jOPwoAEdIgH333vrrTL+HUNNtL+EEQ3kMc8QPXjKoda/QcywXw3UYTiySgecSR8jT5C/5zU8pfUv&#xA;N+keZ4UpDq9sba5YD/d9oRRmPi0Uigf6uFqTv/nCTyjV/MHm+ZNlCaVZvTueM9x/zKxV7p+dflL/&#xA;ABX+V3mHR0TnctatcWYAqxuLUieJV/12j4fI4q+APInliXzT5z0Xy9HUfpO7igkddykTMPVf/YR8&#xA;m+jFX1L/AM5neWNZufKHl6/0uB30fRZZ0v4oVqsSypGsEjAdET02WvQcsVed/lF/zkna+R/IsHlb&#xA;TPKIvteMknp3UMgT61JM7NG0yrG0runJUAB3UUBXFWIeSLPzFa/85C6EPMdm1hrVxrltd3to68Cj&#xA;3Uqz/ZJNARJWldsVevf85s+VdVnXy/5ltoHm0+1SazvpEBYQs7K8TPQbB/iFelRTuMVST8jf+cmd&#xA;V01fKvkO50Vbmwjk+oyXtv6j3JSVz6TLCoP93y+LrVR2OKsT/Ob8ufNn5WfmU3mnRoZF0Zr0ajo+&#xA;ponKKGRpPU+ry7UUo3wgN9pfpoqy/Uv+c1PN2oaStho3luCz12YLGt76z3S822JitfTU8j+yGdvp&#xA;xVW/5yD1nzrrH5D+Ub/znp36M1+TUz68FODOggl4SvF1iZ1+0h6Hw6BV6H/zht/5KOb/ALatz/ya&#xA;hxV86/8AOUf/AJPbzN/0Y/8AdPt8Vff+Koc6dp5l9U20Rlry9QovLl1rWla4qiMVU57W2uABPEko&#xA;XdQ6hgD7VxVuG3ggThBGsSVrxRQor40GKtyRxyIY5FDo2zKwBBHuDiqnBZ2duSYII4i2zFEVSR70&#xA;GKtz2lrccfrEMc3GvH1FDUr1pUe2KuNnaG2NqYIzbMCrQcV9Mg9QVpTfFUNp2gaFpjyPpunWti8t&#xA;TK1tDHEWJNTyKKtd8VRItLUTm4EMYnPWXiOfSn2qVxVT1DTNN1G3NtqFpDeW56w3EayodqfZcEYq&#xA;7T9M03TbcW2nWkNlbjcQ28aRID/qoAMVST8x38wJ5K1RvL6yPqwRPQWFQ8hX1U9XipBqfS5bUr4b&#xA;5Gd1s7bsIYDrMfj14Vm72HI19tPGPJdz+cZ82aQLy01JbI3UQu2uLRo4hAWHqlmeNQPgr3+W+UR4&#xA;re/7Vx9k/lcnBLHx8B4eGdni6bA976HltreUgyxJIRsCygmn05kvlscko8iQs+oWP/LPF/wC/wBM&#xA;aT40/wCcfmrgAAACgHQYtanPa21wAJ4klC7qHUMAfauKtw28ECcII1iSteKKFFfGgxVfiqHi07T4&#xA;ZBJFbRRyL9l0RVIqKbEDFUQQGBBFQdiD0IxVLrHy35dsLk3VjpdnaXLfanggijc1FN2RQemKox7O&#xA;0eYTvBG0y04ylVLCnSjUriq+WKKWNopUWSNwVdGAKkHqCD1xVA6d5e0DTJZJdN0y0sZZamWS2gji&#xA;ZidzyKKpOKo2aGGeJ4Zo1likHF43AZWB6gg7HFUDp/lry5psxm07SrOymYktJb28UTEt9okoqnfv&#xA;iqNntre4ULPEkqg1CuoYA+O+Ktw28ECcII1iSteKKFFfGgxVSl07T5pDJLbRSSN9p3RWJoKbkjFX&#xA;/9k=</xmpGImg:image>
               </rdf:li>
            </rdf:Alt>
         </xmp:Thumbnails>
      </rdf:Description>
      <rdf:Description rdf:about=""
            xmlns:xmpTPg="http://ns.adobe.com/xap/1.0/t/pg/"
            xmlns:stDim="http://ns.adobe.com/xap/1.0/sType/Dimensions#"
            xmlns:xmpG="http://ns.adobe.com/xap/1.0/g/">
         <xmpTPg:NPages>1</xmpTPg:NPages>
         <xmpTPg:HasVisibleTransparency>False</xmpTPg:HasVisibleTransparency>
         <xmpTPg:HasVisibleOverprint>False</xmpTPg:HasVisibleOverprint>
         <xmpTPg:MaxPageSize rdf:parseType="Resource">
            <stDim:w>500.000000</stDim:w>
            <stDim:h>87.000000</stDim:h>
            <stDim:unit>Pixels</stDim:unit>
         </xmpTPg:MaxPageSize>
         <xmpTPg:PlateNames>
            <rdf:Seq>
               <rdf:li>Cyan</rdf:li>
               <rdf:li>Magenta</rdf:li>
               <rdf:li>Yellow</rdf:li>
               <rdf:li>Black</rdf:li>
            </rdf:Seq>
         </xmpTPg:PlateNames>
         <xmpTPg:SwatchGroups>
            <rdf:Seq>
               <rdf:li rdf:parseType="Resource">
                  <xmpG:groupName>Default Swatch Group</xmpG:groupName>
                  <xmpG:groupType>0</xmpG:groupType>
               </rdf:li>
            </rdf:Seq>
         </xmpTPg:SwatchGroups>
      </rdf:Description>
      <rdf:Description rdf:about=""
            xmlns:pdf="http://ns.adobe.com/pdf/1.3/">
         <pdf:Producer>Adobe PDF library 10.01</pdf:Producer>
      </rdf:Description>
   </rdf:RDF>
</x:xmpmeta>
                                                                                                    
                                                                                                    
                                                                                                    
                                                                                                    
                                                                                                    
                                                                                                    
                                                                                                    
                                                                                                    
                                                                                                    
                                                                                                    
                                                                                                    
                                                                                                    
                                                                                                    
                                                                                                    
                                                                                                    
                                                                                                    
                                                                                                    
                                                                                                    
                                                                                                    
                                                                                                    
                           
<?xpacket end="w"?>
	</metadata>
<g>
	<path d="M89.16,14.96L71.16,73H60.32L48.44,35.04c-0.187-0.533-0.374-1.12-0.56-1.76c-0.187-0.64-0.36-1.32-0.52-2.04
		c-0.16,0.72-0.333,1.4-0.52,2.04c-0.187,0.64-0.374,1.227-0.56,1.76L34.28,73H23.4L5.44,14.96h10.08c1.04,0,1.913,0.24,2.62,0.72
		c0.706,0.48,1.166,1.12,1.38,1.92l9,32.72c0.213,0.906,0.433,1.887,0.66,2.939c0.226,1.055,0.446,2.167,0.66,3.34
		c0.24-1.199,0.493-2.32,0.76-3.359c0.266-1.04,0.56-2.014,0.88-2.92L41.96,17.6c0.213-0.667,0.673-1.273,1.38-1.82
		c0.707-0.546,1.566-0.82,2.58-0.82h3.52c1.04,0,1.886,0.247,2.54,0.74c0.653,0.494,1.14,1.126,1.46,1.9l10.44,32.72
		c0.32,0.854,0.613,1.779,0.88,2.779s0.52,2.061,0.76,3.18c0.213-1.119,0.42-2.18,0.62-3.18c0.2-1,0.406-1.926,0.62-2.779l9-32.72
		c0.187-0.693,0.64-1.306,1.36-1.84c0.72-0.533,1.586-0.8,2.6-0.8H89.16z"/>
	<path d="M105.2,35.8c0.773-0.693,1.58-1.326,2.42-1.9c0.84-0.573,1.733-1.066,2.68-1.48c0.946-0.413,1.96-0.733,3.04-0.96
		c1.08-0.226,2.246-0.34,3.5-0.34c2.24,0,4.226,0.387,5.96,1.16c1.733,0.774,3.193,1.854,4.38,3.24c1.186,1.387,2.08,3.04,2.68,4.96
		c0.6,1.92,0.9,4.027,0.9,6.32V73h-11V46.8c0-2.293-0.534-4.073-1.6-5.34c-1.067-1.266-2.64-1.9-4.72-1.9c-1.547,0-3,0.333-4.36,1
		c-1.36,0.667-2.654,1.6-3.88,2.8V73H94.16V13.36h11.04V35.8z"/>
	<path d="M135.398,37.48c2.426-2.186,5.106-3.82,8.04-4.9c2.933-1.08,6.106-1.62,9.52-1.62c2.453,0,4.646,0.4,6.58,1.2
		c1.933,0.8,3.573,1.914,4.92,3.34c1.346,1.427,2.38,3.127,3.1,5.1c0.72,1.974,1.08,4.134,1.08,6.48V73h-5.04
		c-1.04,0-1.833-0.146-2.38-0.439c-0.547-0.293-0.994-0.906-1.34-1.84l-0.88-2.641c-1.04,0.906-2.047,1.707-3.02,2.4
		c-0.974,0.693-1.98,1.273-3.02,1.74s-2.154,0.819-3.34,1.059c-1.187,0.24-2.514,0.361-3.98,0.361c-1.813,0-3.467-0.24-4.96-0.721
		c-1.494-0.48-2.78-1.193-3.86-2.141c-1.08-0.945-1.914-2.125-2.5-3.539c-0.587-1.414-0.88-3.04-0.88-4.881
		c0-1.52,0.386-3.039,1.16-4.56s2.1-2.899,3.98-4.14c1.88-1.24,4.386-2.267,7.52-3.08c3.133-0.812,7.06-1.273,11.78-1.38v-2.12
		c0-2.586-0.547-4.486-1.64-5.7c-1.094-1.213-2.667-1.82-4.72-1.82c-1.52,0-2.787,0.18-3.8,0.54c-1.014,0.36-1.9,0.747-2.66,1.16
		c-0.76,0.414-1.474,0.8-2.14,1.16c-0.667,0.36-1.44,0.54-2.32,0.54c-0.773,0-1.42-0.193-1.94-0.58
		c-0.52-0.386-0.954-0.846-1.3-1.38L135.398,37.48z M157.878,55.76c-2.694,0.134-4.934,0.367-6.72,0.7
		c-1.787,0.334-3.207,0.767-4.26,1.3c-1.054,0.534-1.8,1.141-2.24,1.82s-0.66,1.42-0.66,2.22c0,1.601,0.446,2.733,1.34,3.4
		c0.893,0.667,2.14,1,3.74,1c1.84,0,3.433-0.327,4.78-0.979c1.346-0.654,2.686-1.674,4.02-3.061V55.76z"/>
	<path d="M187.718,73.641c-1.867,0-3.52-0.274-4.96-0.82c-1.44-0.547-2.654-1.326-3.64-2.34c-0.987-1.014-1.734-2.24-2.24-3.681
		c-0.507-1.44-0.76-3.065-0.76-4.88V39.68h-3.88c-0.587,0-1.087-0.187-1.5-0.56c-0.414-0.373-0.62-0.933-0.62-1.68v-4.32l6.6-1.2
		l2.24-10.68c0.293-1.2,1.106-1.8,2.44-1.8h5.76V32h10.64v7.68h-10.64V61.2c0,1.146,0.273,2.054,0.82,2.72
		c0.546,0.667,1.326,1,2.34,1c0.533,0,0.986-0.061,1.36-0.18c0.374-0.12,0.693-0.254,0.96-0.4c0.266-0.146,0.513-0.279,0.74-0.4
		c0.226-0.119,0.46-0.18,0.7-0.18c0.32,0,0.586,0.074,0.8,0.221c0.213,0.146,0.426,0.393,0.64,0.74l3.32,5.279
		c-1.52,1.2-3.24,2.107-5.16,2.721C191.758,73.333,189.771,73.641,187.718,73.641z"/>
	<path d="M354.595,14.96l-18,58.04h-10.84l-11.88-37.96c-0.188-0.533-0.374-1.12-0.561-1.76c-0.187-0.64-0.36-1.32-0.52-2.04
		c-0.16,0.72-0.334,1.4-0.521,2.04c-0.187,0.64-0.374,1.227-0.56,1.76l-12,37.96h-10.88l-17.96-58.04h10.079
		c1.04,0,1.914,0.24,2.62,0.72c0.707,0.48,1.167,1.12,1.38,1.92l9,32.72c0.214,0.906,0.434,1.887,0.66,2.939
		c0.227,1.055,0.446,2.167,0.66,3.34c0.24-1.199,0.493-2.32,0.76-3.359c0.267-1.04,0.561-2.014,0.881-2.92l10.479-32.72
		c0.213-0.667,0.673-1.273,1.38-1.82c0.706-0.546,1.566-0.82,2.58-0.82h3.521c1.04,0,1.886,0.247,2.54,0.74
		c0.652,0.494,1.14,1.126,1.46,1.9l10.439,32.72c0.32,0.854,0.613,1.779,0.88,2.779s0.521,2.061,0.76,3.18
		c0.214-1.119,0.421-2.18,0.62-3.18c0.2-1,0.406-1.926,0.62-2.779l9-32.72c0.187-0.693,0.641-1.306,1.36-1.84
		c0.72-0.533,1.586-0.8,2.6-0.8H354.595z"/>
	<path d="M350.354,37.48c2.427-2.186,5.106-3.82,8.04-4.9s6.106-1.62,9.521-1.62c2.453,0,4.646,0.4,6.58,1.2
		c1.933,0.8,3.573,1.914,4.92,3.34c1.346,1.427,2.38,3.127,3.1,5.1c0.72,1.974,1.08,4.134,1.08,6.48V73h-5.04
		c-1.04,0-1.834-0.146-2.38-0.439c-0.547-0.293-0.994-0.906-1.34-1.84l-0.88-2.641c-1.04,0.906-2.047,1.707-3.021,2.4
		s-1.979,1.273-3.02,1.74s-2.154,0.819-3.34,1.059c-1.188,0.24-2.514,0.361-3.98,0.361c-1.813,0-3.467-0.24-4.96-0.721
		c-1.494-0.48-2.78-1.193-3.86-2.141c-1.079-0.945-1.913-2.125-2.5-3.539s-0.88-3.04-0.88-4.881c0-1.52,0.387-3.039,1.16-4.56
		s2.101-2.899,3.98-4.14s4.386-2.267,7.52-3.08c3.133-0.812,7.061-1.273,11.78-1.38v-2.12c0-2.586-0.547-4.486-1.64-5.7
		c-1.094-1.213-2.667-1.82-4.721-1.82c-1.52,0-2.787,0.18-3.8,0.54c-1.014,0.36-1.9,0.747-2.66,1.16
		c-0.76,0.414-1.474,0.8-2.14,1.16c-0.667,0.36-1.44,0.54-2.32,0.54c-0.773,0-1.42-0.193-1.939-0.58
		c-0.521-0.386-0.954-0.846-1.301-1.38L350.354,37.48z M372.835,55.76c-2.694,0.134-4.934,0.367-6.72,0.7
		c-1.787,0.334-3.207,0.767-4.261,1.3c-1.054,0.534-1.8,1.141-2.239,1.82c-0.44,0.68-0.66,1.42-0.66,2.22
		c0,1.601,0.446,2.733,1.34,3.4c0.893,0.667,2.14,1,3.74,1c1.84,0,3.433-0.327,4.779-0.979c1.347-0.654,2.687-1.674,4.021-3.061
		V55.76z"/>
	<path d="M404.874,73.641c-1.866,0-3.52-0.274-4.96-0.82c-1.439-0.547-2.653-1.326-3.64-2.34c-0.987-1.014-1.734-2.24-2.24-3.681
		c-0.507-1.44-0.76-3.065-0.76-4.88V39.68h-3.88c-0.587,0-1.087-0.187-1.5-0.56c-0.414-0.373-0.62-0.933-0.62-1.68v-4.32l6.6-1.2
		l2.24-10.68c0.293-1.2,1.106-1.8,2.44-1.8h5.76V32h10.64v7.68h-10.64V61.2c0,1.146,0.272,2.054,0.819,2.72
		c0.547,0.667,1.327,1,2.341,1c0.533,0,0.986-0.061,1.359-0.18c0.373-0.12,0.693-0.254,0.96-0.4s0.514-0.279,0.74-0.4
		c0.227-0.119,0.46-0.18,0.7-0.18c0.32,0,0.586,0.074,0.8,0.221c0.213,0.146,0.427,0.393,0.64,0.74l3.32,5.279
		c-1.52,1.2-3.24,2.107-5.16,2.721C408.914,73.333,406.928,73.641,404.874,73.641z"/>
	<path d="M449.154,40.96c-0.32,0.427-0.641,0.754-0.961,0.98c-0.319,0.227-0.773,0.34-1.359,0.34c-0.534,0-1.047-0.153-1.54-0.46
		c-0.494-0.306-1.061-0.64-1.7-1c-0.64-0.36-1.4-0.693-2.28-1c-0.88-0.306-1.974-0.46-3.279-0.46c-1.654,0-3.087,0.3-4.301,0.9
		c-1.213,0.6-2.22,1.46-3.02,2.58c-0.8,1.12-1.394,2.48-1.78,4.08s-0.58,3.4-0.58,5.4c0,4.213,0.847,7.439,2.54,9.68
		s4.007,3.359,6.94,3.359c1.013,0,1.886-0.086,2.62-0.26c0.732-0.173,1.373-0.393,1.92-0.66c0.546-0.266,1.02-0.56,1.42-0.879
		c0.399-0.32,0.78-0.613,1.14-0.881c0.36-0.266,0.721-0.486,1.08-0.66c0.36-0.173,0.767-0.26,1.22-0.26c0.854,0,1.521,0.32,2,0.961
		l3.16,4c-1.174,1.359-2.427,2.486-3.76,3.379c-1.334,0.895-2.714,1.601-4.14,2.121c-1.427,0.52-2.874,0.879-4.34,1.079
		c-1.468,0.2-2.921,0.3-4.36,0.3c-2.534,0-4.934-0.473-7.2-1.42c-2.267-0.945-4.254-2.326-5.96-4.14
		c-1.707-1.813-3.06-4.04-4.06-6.681c-1-2.639-1.5-5.652-1.5-9.039c0-3.014,0.439-5.813,1.319-8.4c0.88-2.586,2.174-4.826,3.88-6.72
		c1.707-1.894,3.82-3.38,6.341-4.46c2.52-1.08,5.433-1.62,8.739-1.62c3.146,0,5.906,0.507,8.28,1.52c2.373,1.014,4.506,2.48,6.4,4.4
		L449.154,40.96z"/>
	<path d="M467.393,35.8c0.773-0.693,1.58-1.326,2.42-1.9c0.841-0.573,1.733-1.066,2.681-1.48c0.946-0.413,1.96-0.733,3.04-0.96
		c1.08-0.226,2.246-0.34,3.5-0.34c2.24,0,4.226,0.387,5.96,1.16c1.733,0.774,3.193,1.854,4.38,3.24c1.187,1.387,2.08,3.04,2.68,4.96
		c0.601,1.92,0.9,4.027,0.9,6.32V73h-11V46.8c0-2.293-0.534-4.073-1.601-5.34c-1.066-1.266-2.64-1.9-4.72-1.9
		c-1.547,0-3,0.333-4.359,1c-1.36,0.667-2.654,1.6-3.881,2.8V73h-11.04V13.36h11.04V35.8z"/>
</g>
<g id="XMLID_1_">
	<g>
		<g>
			<g>
				<path fill="#ED1A4D" d="M260.19,59.17c1.1,0,2.286,0.854,2.636,1.896l3.368,10.037c0.35,1.043-0.265,1.896-1.364,1.896h-24.25
					c-1.1,0-1.425-0.692-0.723-1.539l8.866-10.691c0.702-0.847,2.177-1.545,3.277-1.552L260.19,59.17z"/>
			</g>
			<g>
				<path fill="#ED1A4D" d="M257.38,31.32c0,4.69-1.229,9.25-3.71,13.67c-1.25,2.22-2.87,4.54-4.86,6.97
					c-1.99,2.44-15.905,19.49-15.905,19.49c-0.696,0.853-2.165,1.55-3.265,1.55h-12.56c-1.1,0-1.46-0.72-0.801-1.601l14.082-18.789
					c0.66-0.881,1.729-2.328,2.378-3.217c0,0,2.271-3.113,3.551-5.084c1.27-1.97,2.28-3.709,3.01-5.22
					c1.43-2.83,2.15-5.75,2.15-8.75c0-1.64-0.34-2.94-1.02-3.9c-0.68-0.97-1.6-1.45-2.77-1.45c-2.61,0-3.562,5.38-3.562,5.38
					c-0.191,1.083-0.346,2.098-0.343,2.254s0.022,0.825,0.03,1.045c0.008,0.22-0.855,0.89-1.955,0.89h-11.82
					c-1.1,0-2.018-0.491-2.04-1.09c-0.021-0.599,0.11-1.977,0.294-3.062c0,0,1.536-9.078,5.286-12.958c3.78-3.9,8.61-5.86,14.5-5.86
					c5.67,0,10.31,1.85,13.9,5.55C255.57,20.76,257.38,25.49,257.38,31.32z"/>
			</g>
		</g>
	</g>
</g>
<g id="XMLID_2_">
	<g>
		<g>
			<g>
				<path fill="#ED1A4D" d="M229.62,75.53c1.1,0,2,0.9,2,2v5.97c0,1.1-0.9,2-2,2h-12.54c-1.1,0-2-0.9-2-2v-5.97c0-1.1,0.9-2,2-2
					H229.62z"/>
			</g>
		</g>
	</g>
</g>
</svg>
